<svg width="69" height="56" fill="none" xmlns="http://www.w3.org/2000/svg"><g clip-path="url(#a)" fill="#303030"><path d="m39.15 16.87-1.31-1a1.00029 1.00029 0 0 0-.7288-.2178 1.0002 1.0002 0 0 0-.6712.3578L18.31 36.83l.28.31L23.08 33a.69006.69006 0 0 1-.3499-.3129.6898.6898 0 0 1-.0687-.4644c.0321-.1581.1185-.3.2443-.4009a.68984.68984 0 0 1 .4443-.1518.68009.68009 0 0 1 .65.48l5.92-5.49a.51036.51036 0 0 1 .32-.1128c.1164 0 .2293.0398.32.1128l.3.22a.49965.49965 0 0 0 .3505.0901.49998.49998 0 0 0 .3195-.1701l7.74-8.68a.8291.8291 0 0 0 .184-.3016.82918.82918 0 0 0 .0418-.3508.82799.82799 0 0 0-.1078-.3364.82962.82962 0 0 0-.238-.2612Z"/><path d="M47.67 22.73a40.44879 40.44879 0 0 1-13.12 6.15A71.15449 71.15449 0 0 1 20.28 31c.097.7102.2714 1.4077.52 2.08 2.72 2.46 23.2-1.74 27.2-6.6.85-1.01-.33-3.75-.33-3.75ZM23.35 33a.68035.68035 0 0 1-.3778-.1146.68014.68014 0 0 1-.103-1.0463.68057.68057 0 0 1 .3482-.1861.68097.68097 0 0 1 .3929.0387.68047.68047 0 0 1 .3051.2505.68011.68011 0 0 1 .1146.3778.67001.67001 0 0 1-.4182.631.6706.6706 0 0 1-.2618.049ZM3.99999 21.2899l.16-.69 2.6.59c.21451.3962.34714.8315.39 1.28a4.26962 4.26962 0 0 1-.09 1.42 3.75955 3.75955 0 0 1-.86 1.74 3.4292 3.4292 0 0 1-1.54 1 3.64907 3.64907 0 0 1-1.89.07 3.50907 3.50907 0 0 1-1.67-.88 3.2997 3.2997 0 0 1-.95-1.57 3.78 3.78 0 0 1 0-2 4.2705 4.2705 0 0 1 .57-1.38 2.92085 2.92085 0 0 1 1-.93l.36.55a2.85997 2.85997 0 0 0-1.32 1.94 3.11999 3.11999 0 0 0 .03 1.57c.13437.4864.4009.926.77 1.27a2.81869 2.81869 0 0 0 1.37.73 2.82956 2.82956 0 0 0 1.53 0 2.93902 2.93902 0 0 0 1.25-.81c.34965-.4026.5906-.888.7-1.41a3.07001 3.07001 0 0 0-.12-1.91l-2.29-.58ZM9.65998 14.9999l-2.33 3.11 1 1.79-.46.62-3.7-6.75.43-.59 7.53002 1.62-.47.62-2.00002-.42Zm-.66-.16-4-.9 2 3.59 2-2.69ZM9 8.5501l.6-.45 3.81 5.1 3.14-2.35.38.51-3.73 2.79-4.2-5.6ZM15.3 4.38008l.67-.3 2.64 5.78 3.57-1.62.26.58-4.24 1.93002-2.9-6.37002ZM28.48 6.68003l.15.63-4.82 1.13-1.6-6.82 4.68-1.09.14.62-4 .93.57 2.42 3.52-.83.15.62-3.53.82.6 2.53 4.14-.96ZM35.35 6.92997l-1.67-2.2a5.06847 5.06847 0 0 1-.56 0l-1.88.06.07 2.22h-.74l-.23-7 2.66-.01a3.1599 3.1599 0 0 1 2.12.57c.2596.209.4682.47421.6103.77563.142.30142.2137.63118.2097.96437a2.31958 2.31958 0 0 1-.37 1.4 2.3298 2.3298 0 0 1-1.16.85l1.75 2.34-.81.03Zm-.7-3.29a1.59024 1.59024 0 0 0 .4077-.59558 1.59027 1.59027 0 0 0 .1023-.71442 1.6083 1.6083 0 0 0-.1475-.70799 1.60941 1.60941 0 0 0-.4425-.57201 2.42993 2.42993 0 0 0-1.57-.41l-1.9.07.12 3.5 1.86-.06a2.39984 2.39984 0 0 0 1.57-.51ZM40.64 5.07l-.36 2.39-.73-.11.37-2.35-2.07-5 .78.12 1.77 4.26 3-3.53.7.15-3.46 4.07ZM50.53 4.64993l.87 1.13-.38.3-.87-1.16-.55 1.31-.42-.18.56-1.31-1.44.19v-.48l1.42-.16-.88-1.13.39-.3.77 1.14.54-1.32.43.18-.51 1.34 1.44-.2v.49l-1.37.16ZM53.87 12.7099a2.77061 2.77061 0 0 1-.43-1.21l.59-.26c.0443.3964.1739.7785.38 1.12.2234.3829.5148.7218.86 1 .3564.3413.8113.5617 1.3.63.1766.0164.3545-.0106.5183-.0785.1638-.068.3086-.1749.4217-.3115a.89946.89946 0 0 0 .1857-.3161.89854.89854 0 0 0 .0443-.3639 1.84113 1.84113 0 0 0-.24-.69c-.1879-.3069-.3915-.604-.61-.89a9.08667 9.08667 0 0 1-.72-1.1 2.00032 2.00032 0 0 1-.26-.93998 1.46996 1.46996 0 0 1 .39-1 1.82989 1.82989 0 0 1 .83-.57 1.99985 1.99985 0 0 1 1.11 0c.4672.15277.899.39759 1.27.72.3079.25607.5803.552.81.88.2124.30416.3714.64235.47.99998l-.57.3a3.52048 3.52048 0 0 0-.44-.93998 3.61111 3.61111 0 0 0-.67-.69 2.21984 2.21984 0 0 0-1.29-.61 1.08006 1.08006 0 0 0-.5218.08631 1.0803 1.0803 0 0 0-.4182.32369.85932.85932 0 0 0-.1893.31485.86012.86012 0 0 0-.0407.36515c.0234.25217.1056.49534.24.70998.14.23.34.53.61.89.2677.3408.5084.7019.72 1.08.1664.2862.2592.6092.27.94.0007.3706-.1386.7278-.39 1a1.77956 1.77956 0 0 1-.84.57 1.91976 1.91976 0 0 1-1.11 0 3.7093 3.7093 0 0 1-1.28-.72 4.54897 4.54897 0 0 1-1-1.24ZM63.93 14.17l-1.41-2 .52-.37 3.25 4.64-.52.37-1.41-2-5.22 3.65-.42-.61 5.21-3.68ZM61.69 22.39a3.3189 3.3189 0 0 1 1-1.56 3.54924 3.54924 0 0 1 1.64-.83 3.61968 3.61968 0 0 1 1.88.07 3.56047 3.56047 0 0 1 1.53 1 3.75 3.75 0 0 1 .85 1.74 3.811 3.811 0 0 1 0 1.93 3.42113 3.42113 0 0 1-1 1.56 3.71081 3.71081 0 0 1-1.6823.86 3.71022 3.71022 0 0 1-1.8877-.08 3.34976 3.34976 0 0 1-1.53-1 3.75955 3.75955 0 0 1-.85-1.73 3.84876 3.84876 0 0 1 .05-1.96ZM63 25.57c.3339.3802.7665.6606 1.25.81a3.09935 3.09935 0 0 0 1.5316.0498c.5067-.1118.9772-.349 1.3684-.6898.3691-.3396.6416-.7709.79-1.25a3.2204 3.2204 0 0 0 .0398-1.5507A3.22026 3.22026 0 0 0 67.29 21.55a2.84936 2.84936 0 0 0-1.29-.81 3 3 0 0 0-1.54 0 2.75927 2.75927 0 0 0-1.36.69 2.78974 2.78974 0 0 0-.79 1.26 2.9995 2.9995 0 0 0 0 1.55c.1095.4961.3474.9547.69 1.33ZM60.93 33.9999l2.59-1c0-.18.06-.36.11-.55l.49-1.81-2.12-.55.19-.71 6.76 1.81-.68 2.53a3.17034 3.17034 0 0 1-1.16 1.86c-.2737.19-.5876.3142-.9172.3628-.3296.0485-.666.0202-.9828-.0828a2.17017 2.17017 0 0 1-1.2259-.7544 2.16974 2.16974 0 0 1-.4841-1.3556l-2.76 1 .19-.75Zm3.35.28c.1171.2125.276.3991.4672.5487.1911.1495.4105.2589.6449.3215.2345.0625.4792.0771.7194.0427.2402-.0344.471-.117.6785-.2429.4414-.3545.7426-.8542.85-1.41l.48-1.8-3.39-.91-.48 1.8a2.40973 2.40973 0 0 0 .03 1.65ZM57.34 40.4401l-.51-.39 3-3.95 5.58 4.23-2.9 3.83-.51-.39 2.45-3.23-2-1.51-2.19 2.89-.5-.38 2.24-2.89-2.07-1.57-2.59 3.36ZM55 48.4099l-1.43.08v-.48l1.43-.01-.77-1.19.39-.25.76 1.2.62-1.34.43.23-.68 1.26 1.43-.08v.49h-1.45l.77 1.19-.39.25-.76-1.2-.66 1.3-.42-.24.73-1.21ZM42 47.6099l1.21.67c.2028-.3897.486-.732.8307-1.0043a3.11059 3.11059 0 0 1 1.1693-.5757 3.16069 3.16069 0 0 1 1.23-.13c.3597.0276.7052.152 1 .36.2664.2009.4625.4809.56.8.1205.3948.0993.8192-.06 1.2a4.9992 4.9992 0 0 1-1 1.39c.3297.1772.6355.3956.91.65.1886.1949.329.4312.41.69.0512.2018.0544.4127.0093.616a1.33036 1.33036 0 0 1-.2693.554c-.267.3847-.6653.6585-1.12.77a1.73976 1.73976 0 0 1-1.24 0 1.2505 1.2505 0 0 1-.4599-.3403c-.125-.1475-.214-.322-.2601-.5097a1.35981 1.35981 0 0 1 .07-1c.2295-.4546.53-.8698.89-1.23l-2.41-1.34c-.092.4709-.1122.953-.06 1.43h-.61a4.7784 4.7784 0 0 1 .2-1.74l-1.26-.7.26-.56Zm1.74 1 2.65 1.47c.3473-.3316.6348-.7207.85-1.15a1.2696 1.2696 0 0 0 0-.9 1.08062 1.08062 0 0 0-.2553-.4634 1.08052 1.08052 0 0 0-.4447-.2866 2.00027 2.00027 0 0 0-1.28 0 2.40048 2.40048 0 0 0-.9243.4769 2.40052 2.40052 0 0 0-.6357.8231l.04.03Zm3.76 4a.90063.90063 0 0 0 .1201-.3613.90026.90026 0 0 0-.0401-.3787 1.23005 1.23005 0 0 0-.32-.52 4.32207 4.32207 0 0 0-.83-.55 5.22037 5.22037 0 0 0-.79 1 .99969.99969 0 0 0-.08.74.84012.84012 0 0 0 .44.53c.2546.096.5354.096.79 0 .2719-.0725.5092-.239.67-.47l.04.01ZM29.81 55.3201l.14-7h.71l-.11 5.6 2.84-4.66h.35l2.66 4.74.1-5.57h.71l-.13 7h-.61l-2.94-5.23-3.11 5.13-.61-.01ZM26.33 48.0001c.4573.4358.7845.9901.9452 1.6011a3.40966 3.40966 0 0 1-.0352 1.8589 3.5597 3.5597 0 0 1-.95 1.63 3.3602 3.3602 0 0 1-1.61.88 3.88013 3.88013 0 0 1-1.94-.06 3.76013 3.76013 0 0 1-1.68-.91 3.35955 3.35955 0 0 1-.93-1.58 3.69066 3.69066 0 0 1 .0329-1.8927 3.68998 3.68998 0 0 1 .9671-1.6273 3.44962 3.44962 0 0 1 1.58-.9 3.84996 3.84996 0 0 1 1.93.06c.6355.1611 1.218.4851 1.69.94Zm-3.41-.35a2.66937 2.66937 0 0 0-1.29.72 2.8898 2.8898 0 0 0-.76 1.33 2.84909 2.84909 0 0 0 0 1.53c.1179.4869.371.9306.73 1.28.3765.3682.8414.6334 1.35.77a3.14058 3.14058 0 0 0 1.55 0 2.84116 2.84116 0 0 0 1.3-.72 2.9405 2.9405 0 0 0 .76-1.33 2.8798 2.8798 0 0 0 0-1.54 2.81025 2.81025 0 0 0-.74-1.28 2.99965 2.99965 0 0 0-1.36-.76 2.88976 2.88976 0 0 0-1.54 0ZM15.35 43l.27 2.75c.1715.0733.3385.1568.5.25l1.63.94 1.1-1.94.65.37L16 51.4l-2.28-1.31a3.17926 3.17926 0 0 1-1.5-1.6 2.19964 2.19964 0 0 1-.1073-.9751c.0381-.329.15-.6451.3273-.9249a2.29002 2.29002 0 0 1 1.05-1c.456-.1889.9605-.2274 1.44-.11l-.29-2.94.71.46Zm-1.14 3.16c-.2349.059-.4555.1647-.6485.3108a1.79935 1.79935 0 0 0-.4751.5399 1.7983 1.7983 0 0 0-.2259.6827 1.7999 1.7999 0 0 0 .0595.7166 2.4594 2.4594 0 0 0 1.15 1.19l1.61.93 1.75-3-1.61-.93a2.47074 2.47074 0 0 0-1.61-.49v.05ZM9.43 38.3101l.45-.45 3.45 3.55-5 4.88-3.33-3.44.46-.45 2.83 2.91 1.71-1.73-2.48-2.58.48-.46 2.53 2.6 1.86-1.81-2.96-3.02ZM1.99999 34.38l.24-1.38.47.07-.27 1.42 1.33-.49.16.44-1.35.46 1.11.94-.32.36-1.07-1-.25 1.42-.48-.09.28-1.42-1.34.48-.15-.39 1.34-.47-1.11-.93.33-.36 1.08.94Z"/></g><defs><clipPath id="a"><path fill="#fff" d="M0 0h68.93v55.46H0z"/></clipPath></defs></svg>